<?xml version="1.0" encoding="UTF-8"?>
<!DOCTYPE svg PUBLIC "-//W3C//DTD SVG 1.1//EN" "http://www.w3.org/Graphics/SVG/1.1/DTD/svg11.dtd">
<!-- Creator: CorelDRAW X7 -->
<svg xmlns="http://www.w3.org/2000/svg" xml:space="preserve" width="8.26772in" height="11.6929in" version="1.1" style="shape-rendering:geometricPrecision; text-rendering:geometricPrecision; image-rendering:optimizeQuality; fill-rule:evenodd; clip-rule:evenodd"
viewBox="0 0 8268 11693"
 xmlns:xlink="http://www.w3.org/1999/xlink">
 <defs>
  <style type="text/css">
   <![CDATA[
    .fil0 {fill:#373435;fill-rule:nonzero}
    .fil1 {fill:black;fill-rule:nonzero}
   ]]>
  </style>
 </defs>
 <g id="Layer_x0020_1">
  <metadata id="CorelCorpID_0Corel-Layer"/>
  <path class="fil0" d="M10871 17509l0 -117 42 0c41,0 62,19 62,57 0,18 -6,32 -17,43 -11,11 -27,17 -45,17l-42 0zm27 -96l0 74 13 0c11,0 20,-3 26,-10 7,-7 10,-16 10,-28 0,-11 -3,-20 -9,-26 -7,-7 -16,-10 -28,-10l-12 0zm146 98c-17,0 -31,-6 -41,-17 -11,-11 -16,-25 -16,-42 0,-19 5,-34 16,-45 11,-11 25,-17 42,-17 17,0 31,5 41,16 10,11 15,26 15,43 0,19 -5,33 -16,45 -10,11 -24,17 -41,17zm1 -99c-10,0 -17,4 -22,11 -6,7 -8,16 -8,27 0,12 2,21 8,28 5,6 12,10 21,10 9,0 16,-3 22,-10 5,-7 8,-16 8,-27 0,-12 -3,-22 -8,-28 -5,-7 -12,-11 -21,-11zm228 -20l-31 117 -29 0 -19 -75c-1,-4 -2,-9 -2,-13l0 0c-1,5 -1,9 -2,13l-20 75 -31 0 -30 -117 28 0 17 78c1,3 1,7 1,13l1 0c0,-4 1,-9 2,-14l21 -77 29 0 19 78c0,3 1,7 2,13l0 0c0,-5 1,-9 2,-13l16 -78 26 0zm120 117l-26 0 -49 -74c-2,-4 -4,-7 -5,-9l-1 0c1,4 1,10 1,18l0 65 -25 0 0 -117 28 0 47 71c2,3 4,6 6,9l0 0c-1,-2 -1,-8 -1,-16l0 -64 25 0 0 117zm96 0l-69 0 0 -117 26 0 0 95 43 0 0 22zm61 2c-17,0 -30,-6 -41,-17 -10,-11 -16,-25 -16,-42 0,-19 6,-34 16,-45 11,-11 25,-17 43,-17 17,0 30,5 40,16 11,11 16,26 16,43 0,19 -6,33 -16,45 -11,11 -25,17 -42,17zm1 -99c-9,0 -16,4 -22,11 -5,7 -8,16 -8,27 0,12 3,21 8,28 6,6 13,10 22,10 9,0 16,-3 21,-10 5,-7 8,-16 8,-27 0,-12 -2,-22 -8,-28 -5,-7 -12,-11 -21,-11zm176 97l-28 0 -9 -26 -41 0 -8 26 -29 0 43 -117 31 0 41 117zm-43 -47l-12 -39c-1,-3 -2,-6 -2,-10l-1 0c0,3 -1,6 -2,10l-13 39 30 0zm58 47l0 -117 41 0c42,0 62,19 62,57 0,18 -5,32 -17,43 -11,11 -26,17 -45,17l-41 0zm26 -96l0 74 13 0c12,0 20,-3 27,-10 6,-7 10,-16 10,-28 0,-11 -4,-20 -10,-26 -6,-7 -15,-10 -27,-10l-13 0zm2667 96l-27 0 0 -117 27 0 0 117zm131 0l-26 0 -49 -74c-2,-4 -4,-7 -5,-9l-1 0c1,4 1,10 1,18l0 65 -25 0 0 -117 28 0 47 71c2,3 4,6 6,9l0 0c-1,-2 -1,-8 -1,-16l0 -64 25 0 0 117zm21 -5l0 -26c5,4 10,7 16,9 5,2 11,3 16,3 4,0 7,0 9,-1 3,-1 5,-1 6,-3 2,-1 3,-2 4,-3 1,-2 1,-3 1,-5 0,-2 0,-4 -2,-6 -1,-2 -3,-3 -5,-5 -2,-2 -5,-3 -8,-4 -3,-2 -6,-3 -10,-5 -9,-3 -16,-8 -20,-14 -5,-5 -7,-12 -7,-19 0,-7 1,-12 4,-16 2,-5 5,-8 9,-11 5,-3 10,-5 15,-6 6,-1 11,-2 18,-2 6,0 11,0 16,1 5,1 9,2 13,3l0 25c-2,-2 -4,-3 -7,-4 -2,-1 -4,-2 -7,-2 -2,-1 -5,-2 -7,-2 -2,0 -5,0 -7,0 -3,0 -6,0 -8,0 -2,1 -4,2 -6,3 -2,1 -3,2 -4,3 -1,2 -1,4 -1,5 0,2 0,4 1,6 1,1 3,3 4,4 2,1 5,3 7,4 3,1 6,3 10,4 4,2 8,4 12,6 4,3 7,5 10,8 2,3 4,6 6,9 1,4 2,8 2,13 0,6 -1,12 -4,16 -2,5 -6,8 -10,11 -4,3 -9,5 -15,6 -5,1 -11,2 -17,2 -7,0 -13,-1 -19,-2 -5,-1 -10,-3 -15,-5zm181 -91l-33 0 0 96 -27 0 0 -96 -33 0 0 -21 93 0 0 21zm107 96l-29 0 -8 -26 -42 0 -8 26 -28 0 42 -117 31 0 42 117zm-43 -47l-13 -39c-1,-3 -1,-6 -2,-10l0 0c-1,3 -1,6 -2,10l-13 39 30 0zm127 47l-70 0 0 -117 27 0 0 95 43 0 0 22zm85 0l-69 0 0 -117 26 0 0 95 43 0 0 22zm-3113 -1c-3,1 -7,2 -13,2 -14,0 -21,-8 -21,-24l0 -49 -15 0 0 -12 15 0 0 -20 13 -4 0 24 21 0 0 12 -21 0 0 47c0,5 1,9 3,11 2,3 5,4 9,4 4,0 6,-1 9,-3l0 12zm87 1l-13 0 0 -49c0,-17 -7,-26 -20,-26 -6,0 -12,3 -16,8 -5,5 -7,11 -7,19l0 48 -13 0 0 -124 13 0 0 54 0 0c7,-11 16,-16 28,-16 19,0 28,12 28,34l0 52zm92 -39l-59 0c0,9 3,17 8,22 4,5 11,7 19,7 10,0 18,-3 26,-9l0 12c-7,6 -17,8 -29,8 -12,0 -21,-3 -28,-11 -6,-7 -10,-18 -10,-32 0,-13 4,-23 11,-32 8,-8 17,-12 28,-12 11,0 19,4 25,11 6,7 9,17 9,29l0 7zm-14 -11c0,-8 -2,-14 -5,-18 -4,-4 -9,-7 -15,-7 -7,0 -12,3 -16,7 -5,5 -8,11 -9,18l45 0zm121 50l-13 0 0 -14 0 0c-6,10 -15,15 -26,15 -8,0 -15,-2 -19,-6 -5,-5 -8,-10 -8,-18 0,-15 10,-24 28,-27l25 -3c0,-14 -6,-22 -17,-22 -10,0 -19,4 -27,11l0 -14c8,-5 17,-8 28,-8 20,0 29,11 29,31l0 55zm-13 -43l-20 3c-6,1 -11,3 -14,5 -3,2 -5,6 -5,11 0,4 2,8 5,10 2,3 6,4 11,4 7,0 12,-2 16,-7 5,-4 7,-10 7,-17l0 -9zm52 30l0 0 0 51 -14 0 0 -122 14 0 0 15 0 0c7,-11 16,-17 29,-17 11,0 19,4 25,11 6,8 9,18 9,30 0,14 -3,26 -10,34 -7,8 -16,12 -28,12 -11,0 -19,-4 -25,-14zm0 -33l0 11c0,7 2,13 7,18 4,5 10,7 17,7 8,0 14,-3 19,-9 4,-6 6,-15 6,-26 0,-9 -2,-16 -6,-22 -4,-5 -10,-8 -17,-8 -8,0 -14,3 -19,9 -5,5 -7,12 -7,20zm98 33l0 0 0 51 -14 0 0 -122 14 0 0 15 0 0c7,-11 16,-17 29,-17 11,0 19,4 25,11 6,8 9,18 9,30 0,14 -3,26 -10,34 -7,8 -16,12 -28,12 -11,0 -19,-4 -25,-14zm0 -33l0 11c0,7 2,13 7,18 4,5 10,7 17,7 8,0 14,-3 19,-9 4,-6 6,-15 6,-26 0,-9 -2,-16 -6,-22 -4,-5 -10,-8 -17,-8 -8,0 -14,3 -19,9 -5,5 -7,12 -7,20zm153 -66c-3,-2 -6,-2 -9,-2 -9,0 -14,6 -14,17l0 13 20 0 0 12 -20 0 0 72 -13 0 0 -72 -14 0 0 -12 14 0 0 -13c0,-9 2,-16 7,-21 5,-5 12,-8 19,-8 4,0 8,1 10,2l0 12zm54 42c-2,-2 -5,-3 -10,-3 -5,0 -10,3 -14,8 -4,5 -6,13 -6,22l0 43 -13 0 0 -84 13 0 0 17 1 0c2,-6 4,-10 8,-13 4,-4 9,-5 13,-5 4,0 7,0 8,1l0 14zm50 71c-13,0 -22,-3 -30,-11 -7,-8 -11,-18 -11,-31 0,-14 4,-25 12,-33 7,-8 18,-12 31,-12 12,0 22,4 29,12 7,7 10,18 10,32 0,13 -4,23 -11,31 -8,8 -18,12 -30,12zm1 -76c-9,0 -16,3 -21,9 -5,6 -7,14 -7,24 0,10 2,18 7,24 6,5 12,8 21,8 8,0 15,-3 20,-8 4,-6 7,-14 7,-24 0,-10 -3,-18 -7,-24 -5,-6 -12,-9 -20,-9zm180 75l-13 0 0 -48c0,-10 -2,-16 -5,-20 -3,-4 -7,-7 -14,-7 -6,0 -11,3 -15,8 -4,5 -6,12 -6,19l0 48 -13 0 0 -50c0,-16 -6,-25 -19,-25 -6,0 -11,3 -14,8 -4,5 -6,11 -6,19l0 48 -13 0 0 -84 13 0 0 13 0 0c6,-10 15,-15 26,-15 6,0 11,2 15,5 4,3 7,7 9,12 6,-11 15,-17 27,-17 19,0 28,12 28,34l0 52zm142 -8c-12,6 -25,9 -40,9 -16,0 -30,-5 -40,-16 -10,-10 -15,-25 -15,-42 0,-18 5,-33 17,-45 11,-11 26,-17 43,-17 13,0 24,2 32,6l0 15c-9,-6 -20,-9 -33,-9 -13,0 -24,5 -32,14 -9,9 -13,20 -13,35 0,14 4,26 12,35 7,8 18,12 31,12 9,0 17,-2 24,-5l0 -33 -26 0 0 -12 40 0 0 53zm60 9c-13,0 -22,-3 -30,-11 -7,-8 -11,-18 -11,-31 0,-14 4,-25 12,-33 7,-8 18,-12 31,-12 12,0 22,4 29,12 7,7 10,18 10,32 0,13 -4,23 -11,31 -8,8 -18,12 -30,12zm1 -76c-9,0 -16,3 -21,9 -5,6 -7,14 -7,24 0,10 2,18 7,24 5,5 12,8 21,8 8,0 15,-3 20,-8 4,-6 7,-14 7,-24 0,-10 -3,-18 -7,-24 -5,-6 -12,-9 -20,-9zm96 76c-12,0 -22,-3 -29,-11 -7,-8 -11,-18 -11,-31 0,-14 4,-25 11,-33 8,-8 18,-12 31,-12 13,0 22,4 29,12 7,7 11,18 11,32 0,13 -4,23 -11,31 -8,8 -18,12 -31,12zm1 -76c-8,0 -15,3 -20,9 -5,6 -8,14 -8,24 0,10 3,18 8,24 5,5 12,8 20,8 9,0 16,-3 20,-8 5,-6 7,-14 7,-24 0,-10 -2,-18 -7,-24 -4,-6 -11,-9 -20,-9zm133 68c0,30 -14,46 -44,46 -10,0 -19,-2 -27,-6l0 -13c10,5 19,7 27,7 21,0 31,-11 31,-32l0 -9 0 0c-7,10 -16,15 -29,15 -10,0 -19,-3 -25,-11 -6,-7 -10,-17 -10,-29 0,-15 4,-26 11,-34 7,-9 16,-13 28,-13 11,0 19,5 25,14l0 0 0 -12 13 0 0 77zm-13 -31l0 -12c0,-7 -2,-13 -7,-17 -4,-5 -10,-8 -16,-8 -9,0 -15,3 -20,9 -5,6 -7,15 -7,26 0,9 2,16 7,22 4,5 10,8 18,8 7,0 13,-2 18,-8 5,-5 7,-12 7,-20zm54 38l-14 0 0 -124 14 0 0 124zm94 -39l-59 0c0,9 3,17 7,22 5,5 12,7 20,7 9,0 18,-3 26,-9l0 12c-7,6 -17,8 -29,8 -12,0 -21,-3 -28,-11 -7,-7 -10,-18 -10,-32 0,-13 4,-23 11,-32 7,-8 17,-12 27,-12 11,0 20,4 26,11 6,7 9,17 9,29l0 7zm-14 -11c0,-8 -2,-14 -6,-18 -3,-4 -8,-7 -15,-7 -6,0 -11,3 -16,7 -4,5 -7,11 -8,18l45 0zm77 5l0 45 -14 0 0 -117 32 0c13,0 22,3 29,9 7,6 10,15 10,26 0,11 -3,20 -11,27 -8,7 -18,10 -31,10l-15 0zm0 -60l0 48 14 0c9,0 17,-2 22,-6 5,-5 7,-11 7,-19 0,-15 -9,-23 -27,-23l-16 0zm91 105l-13 0 0 -124 13 0 0 124zm87 0l-14 0 0 -14 0 0c-6,10 -14,15 -26,15 -8,0 -15,-2 -19,-6 -5,-5 -7,-10 -7,-18 0,-15 9,-24 27,-27l25 -3c0,-14 -5,-22 -17,-22 -10,0 -19,4 -27,11l0 -14c8,-5 18,-8 28,-8 20,0 30,11 30,31l0 55zm-14 -43l-20 3c-6,1 -11,3 -14,5 -3,2 -5,6 -5,11 0,4 2,8 5,10 3,3 7,4 11,4 7,0 12,-2 17,-7 4,-4 6,-10 6,-17l0 -9zm105 -41l-38 97c-7,17 -17,26 -29,26 -4,0 -6,-1 -9,-1l0 -12c3,1 6,1 8,1 7,0 12,-4 15,-12l7 -16 -33 -83 15 0 23 64c0,1 1,3 1,7l1 0c0,-2 1,-4 2,-7l23 -64 14 0zm9 81l0 -15c8,6 16,8 24,8 12,0 18,-4 18,-11 0,-3 -1,-5 -2,-6 -1,-2 -2,-3 -4,-4 -1,-1 -3,-3 -6,-3 -2,-1 -4,-2 -7,-3 -4,-2 -7,-3 -10,-5 -3,-1 -5,-3 -7,-5 -2,-2 -3,-4 -4,-6 -1,-3 -1,-5 -1,-9 0,-4 0,-7 2,-10 2,-3 4,-6 7,-8 3,-2 7,-3 11,-4 3,-1 7,-2 11,-2 8,0 14,1 20,4l0 13c-6,-4 -13,-6 -21,-6 -3,0 -5,1 -7,1 -2,1 -4,2 -5,3 -2,1 -3,2 -4,3 0,2 -1,3 -1,5 0,2 1,4 1,6 1,1 2,2 4,4 1,1 3,2 5,3 3,1 5,2 8,3 3,1 7,2 10,4 3,1 5,3 7,5 2,2 4,4 5,7 1,2 2,5 2,8 0,4 -1,8 -3,11 -2,3 -4,6 -7,8 -3,2 -7,3 -11,4 -4,1 -8,1 -12,1 -9,0 -16,-1 -23,-4zm115 2c-3,1 -8,2 -13,2 -14,0 -22,-8 -22,-24l0 -49 -14 0 0 -12 14 0 0 -20 14 -4 0 24 21 0 0 12 -21 0 0 47c0,5 1,9 3,11 2,3 5,4 9,4 3,0 6,-1 9,-3l0 12zm52 2c-12,0 -22,-3 -29,-11 -7,-8 -11,-18 -11,-31 0,-14 4,-25 11,-33 8,-8 18,-12 31,-12 13,0 22,4 29,12 7,7 11,18 11,32 0,13 -4,23 -11,31 -8,8 -18,12 -31,12zm1 -76c-8,0 -15,3 -20,9 -5,6 -7,14 -7,24 0,10 2,18 7,24 5,5 12,8 20,8 9,0 16,-3 20,-8 5,-6 7,-14 7,-24 0,-10 -2,-18 -7,-24 -4,-6 -11,-9 -20,-9zm106 5c-3,-2 -6,-3 -10,-3 -6,0 -11,3 -15,8 -3,5 -5,13 -5,22l0 43 -14 0 0 -84 14 0 0 17 0 0c2,-6 5,-10 9,-13 4,-4 8,-5 13,-5 3,0 6,0 8,1l0 14zm81 31l-59 0c1,9 3,17 8,22 5,5 11,7 20,7 9,0 18,-3 25,-9l0 12c-7,6 -17,8 -29,8 -11,0 -21,-3 -27,-11 -7,-7 -11,-18 -11,-32 0,-13 4,-23 12,-32 7,-8 16,-12 27,-12 11,0 19,4 25,11 6,7 9,17 9,29l0 7zm-14 -11c0,-8 -1,-14 -5,-18 -4,-4 -9,-7 -15,-7 -7,0 -12,3 -16,7 -5,5 -7,11 -9,18l45 0zm121 50l-13 0 0 -14 0 0c-6,10 -15,15 -26,15 -8,0 -15,-2 -19,-6 -5,-5 -7,-10 -7,-18 0,-15 9,-24 27,-27l25 -3c0,-14 -6,-22 -17,-22 -10,0 -19,4 -27,11l0 -14c8,-5 17,-8 28,-8 20,0 29,11 29,31l0 55zm-13 -43l-20 3c-6,1 -11,3 -14,5 -3,2 -5,6 -5,11 0,4 2,8 5,10 2,3 6,4 11,4 7,0 12,-2 17,-7 4,-4 6,-10 6,-17l0 -9zm108 43l-14 0 0 -48c0,-18 -6,-27 -19,-27 -7,0 -12,3 -17,8 -4,5 -6,11 -6,19l0 48 -13 0 0 -84 13 0 0 14 0 0c7,-11 16,-16 28,-16 9,0 16,3 20,9 5,6 8,14 8,26l0 51zm96 0l-13 0 0 -15 -1 0c-6,11 -15,16 -28,16 -11,0 -19,-3 -25,-11 -7,-7 -10,-17 -10,-30 0,-14 4,-25 11,-33 7,-9 16,-13 27,-13 12,0 20,5 25,14l1 0 0 -52 13 0 0 124zm-13 -38l0 -12c0,-7 -3,-13 -7,-18 -4,-4 -10,-7 -17,-7 -8,0 -14,3 -19,9 -5,6 -7,15 -7,25 0,10 2,17 7,23 4,5 10,8 18,8 7,0 13,-2 18,-8 4,-5 7,-12 7,-20z"/>
  <path class="fil1" d="M10672 16874l0 770 -165 0 0 -583c-9,8 -20,16 -33,23 -12,7 -25,14 -39,19 -14,6 -29,11 -44,15 -15,4 -30,7 -45,9l0 -140c43,-13 84,-29 122,-48 39,-20 73,-42 104,-65l100 0z"/>
 </g>
</svg>
