<?xml version="1.0" encoding="UTF-8"?>
<!DOCTYPE svg PUBLIC "-//W3C//DTD SVG 1.1//EN" "http://www.w3.org/Graphics/SVG/1.1/DTD/svg11.dtd">
<!-- Creator: CorelDRAW X7 -->
<svg xmlns="http://www.w3.org/2000/svg" xml:space="preserve" width="8.26772in" height="11.6929in" version="1.1" style="shape-rendering:geometricPrecision; text-rendering:geometricPrecision; image-rendering:optimizeQuality; fill-rule:evenodd; clip-rule:evenodd"
viewBox="0 0 8268 11693"
 xmlns:xlink="http://www.w3.org/1999/xlink">
 <defs>
  <style type="text/css">
   <![CDATA[
    .fil1 {fill:#373435;fill-rule:nonzero}
    .fil0 {fill:black;fill-rule:nonzero}
   ]]>
  </style>
 </defs>
 <g id="Layer_x0020_1">
  <metadata id="CorelCorpID_0Corel-Layer"/>
  <path class="fil0" d="M14666 19153l320 0 0 138 -502 0 0 -57c0,-38 7,-73 20,-104 13,-30 29,-58 49,-82 19,-25 41,-46 64,-65 24,-19 46,-36 67,-51 22,-15 41,-30 58,-45 16,-14 30,-29 42,-43 11,-14 20,-28 25,-43 6,-14 9,-30 9,-46 0,-32 -9,-57 -28,-73 -18,-17 -46,-25 -83,-25 -65,0 -127,26 -186,77l0 -146c65,-42 139,-64 222,-64 38,0 72,5 102,16 31,10 56,24 77,42 21,19 37,41 48,68 11,26 17,56 17,88 0,35 -5,66 -16,93 -11,27 -25,52 -43,74 -17,22 -38,42 -61,60 -23,19 -47,36 -72,54 -17,12 -33,23 -48,35 -16,12 -30,23 -42,35 -12,11 -21,22 -28,33 -7,11 -11,21 -11,31z"/>
  <path class="fil1" d="M15134 19155l-70 0 0 -117 27 0 0 96 43 0 0 21zm122 0l-29 0 -8 -26 -42 0 -8 26 -28 0 42 -117 31 0 42 117zm-43 -46l-13 -39c-1,-3 -1,-7 -2,-11l0 0c-1,3 -1,7 -2,10l-13 40 30 0zm150 -5c0,35 -17,53 -49,53 -32,0 -48,-17 -48,-51l0 -68 26 0 0 68c0,19 8,28 23,28 14,0 21,-9 21,-27l0 -69 27 0 0 66zm130 51l-27 0 -48 -73c-2,-5 -4,-8 -5,-10l-1 0c1,4 1,10 1,19l0 64 -25 0 0 -117 28 0 47 71c2,3 4,7 6,10l0 0c-1,-3 -1,-8 -1,-16l0 -65 25 0 0 117zm110 -4c-8,4 -19,6 -33,6 -18,0 -32,-5 -42,-16 -11,-10 -16,-24 -16,-42 0,-19 6,-34 18,-45 11,-12 26,-18 45,-18 11,0 21,2 28,5l0 25c-7,-5 -16,-7 -26,-7 -11,0 -20,3 -27,10 -7,7 -10,16 -10,28 0,12 3,21 10,27 6,7 14,10 25,10 10,0 20,-2 28,-7l0 24zm122 4l-27 0 0 -48 -48 0 0 48 -26 0 0 -117 26 0 0 47 48 0 0 -47 27 0 0 117zm924 -2l0 -21c4,2 9,4 13,6 4,1 8,1 12,1 4,0 8,0 11,-1 2,-2 3,-4 3,-6 0,-2 0,-3 -1,-4 -1,-1 -3,-2 -5,-3 -2,-1 -4,-2 -6,-2 -2,-1 -4,-2 -6,-2 -4,-2 -7,-3 -9,-4 -3,-2 -5,-4 -7,-5 -1,-2 -3,-5 -3,-7 -1,-3 -2,-5 -2,-9 0,-5 1,-9 3,-12 2,-3 5,-6 8,-8 4,-2 8,-4 12,-5 4,-1 9,-1 14,-1 3,0 7,0 11,0 4,1 7,2 11,3l0 20c-3,-2 -7,-4 -10,-5 -4,0 -8,-1 -11,-1 -2,0 -4,0 -5,1 -2,0 -3,0 -4,1 -1,0 -2,1 -3,2 0,1 -1,2 -1,3 0,2 1,3 2,4 1,1 2,2 4,3 1,1 3,1 5,2 2,1 4,1 6,2 3,1 6,2 9,4 3,1 5,3 7,5 2,2 4,4 5,6 1,3 1,6 1,9 0,5 -1,10 -3,13 -2,4 -5,6 -9,9 -3,2 -7,3 -12,4 -5,1 -9,2 -14,2 -10,0 -18,-1 -26,-4zm92 -95c-4,0 -8,-1 -11,-3 -2,-3 -4,-6 -4,-10 0,-4 2,-7 4,-9 3,-3 7,-4 11,-4 4,0 8,1 11,4 2,2 4,5 4,9 0,4 -2,7 -4,10 -3,2 -7,3 -11,3zm13 97l-26 0 0 -83 26 0 0 83zm103 -10c0,16 -4,28 -13,36 -9,9 -22,13 -39,13 -12,0 -20,-2 -27,-5l0 -21c9,5 17,7 26,7 9,0 15,-2 20,-7 5,-4 7,-11 7,-18l0 -7 0 0c-6,9 -15,14 -26,14 -11,0 -19,-4 -25,-11 -7,-8 -10,-18 -10,-30 0,-14 4,-26 11,-34 7,-8 16,-12 27,-12 10,0 18,3 23,11l0 0 0 -9 26 0 0 73zm-25 -30l0 -7c0,-5 -2,-9 -5,-13 -3,-4 -7,-6 -12,-6 -6,0 -10,2 -14,7 -3,4 -5,11 -5,19 0,7 2,12 5,16 3,4 7,6 13,6 5,0 9,-2 13,-6 3,-4 5,-9 5,-16zm127 40l-26 0 0 -46c0,-13 -4,-20 -13,-20 -5,0 -9,2 -11,5 -3,4 -5,8 -5,13l0 48 -25 0 0 -83 25 0 0 13 1 0c6,-10 15,-15 26,-15 19,0 28,11 28,34l0 51zm127 0l-26 0 0 -13 0 0c-6,10 -15,15 -25,15 -20,0 -29,-12 -29,-35l0 -50 25 0 0 48c0,11 5,17 14,17 5,0 9,-1 11,-5 3,-3 4,-7 4,-13l0 -47 26 0 0 83zm48 -10l-1 0 0 48 -25 0 0 -121 25 0 0 12 1 0c6,-10 15,-14 27,-14 10,0 19,3 25,11 6,7 8,17 8,30 0,14 -3,25 -10,33 -7,9 -16,13 -27,13 -10,0 -18,-4 -23,-12zm-1 -34l0 7c0,5 2,10 5,14 3,3 7,5 12,5 5,0 10,-2 13,-7 3,-4 5,-10 5,-19 0,-14 -6,-22 -17,-22 -5,0 -10,2 -13,6 -3,4 -5,10 -5,16zm90 46c-5,0 -8,-1 -11,-4 -3,-3 -4,-6 -4,-10 0,-3 1,-7 4,-9 3,-3 7,-4 11,-4 4,0 8,1 11,4 3,2 4,6 4,9 0,4 -1,8 -4,10 -3,3 -7,4 -11,4zm-1405 -3c-3,2 -8,3 -13,3 -14,0 -22,-8 -22,-25l0 -49 -14 0 0 -11 14 0 0 -21 14 -4 0 25 21 0 0 11 -21 0 0 47c0,6 1,10 3,12 2,2 5,3 9,3 3,0 6,0 9,-2l0 11zm87 1l-14 0 0 -48c0,-17 -6,-26 -19,-26 -6,0 -12,2 -16,7 -5,5 -7,12 -7,20l0 47 -13 0 0 -123 13 0 0 53 0 0c7,-10 16,-15 28,-15 18,0 28,11 28,34l0 51zm92 -38l-59 0c0,9 3,16 8,21 4,5 11,8 19,8 10,0 18,-3 26,-10l0 13c-7,5 -17,8 -29,8 -12,0 -21,-4 -28,-11 -6,-8 -10,-19 -10,-32 0,-13 4,-24 11,-32 8,-8 17,-12 28,-12 11,0 19,3 25,10 6,7 9,17 9,30l0 7zm-14 -12c0,-7 -2,-13 -5,-18 -4,-4 -9,-6 -16,-6 -6,0 -11,2 -16,7 -4,4 -7,10 -8,17l45 0zm121 50l-13 0 0 -13 -1 0c-5,10 -14,15 -25,15 -8,0 -15,-2 -20,-7 -4,-4 -7,-10 -7,-17 0,-16 9,-25 28,-27l25 -4c0,-14 -6,-21 -17,-21 -10,0 -19,3 -28,10l0 -14c9,-5 18,-7 29,-7 19,0 29,10 29,31l0 54zm-13 -42l-20 3c-6,0 -11,2 -14,4 -3,2 -5,6 -5,12 0,4 1,7 4,10 3,2 7,4 12,4 7,0 12,-3 16,-7 5,-5 7,-11 7,-18l0 -8zm52 30l0 0 0 50 -14 0 0 -121 14 0 0 14 0 0c7,-11 16,-16 29,-16 11,0 19,3 25,11 6,7 9,17 9,30 0,14 -3,25 -10,33 -7,9 -16,13 -28,13 -11,0 -19,-5 -25,-14zm0 -34l0 12c0,7 2,13 6,17 5,5 11,8 17,8 8,0 15,-3 19,-10 5,-6 7,-14 7,-25 0,-10 -2,-17 -6,-22 -4,-5 -10,-8 -18,-8 -7,0 -14,3 -18,8 -5,5 -7,12 -7,20zm98 34l0 0 0 50 -14 0 0 -121 14 0 0 14 0 0c7,-11 16,-16 29,-16 10,0 19,3 25,11 6,7 9,17 9,30 0,14 -3,25 -10,33 -7,9 -16,13 -28,13 -11,0 -19,-5 -25,-14zm0 -34l0 12c0,7 2,13 6,17 5,5 10,8 17,8 8,0 15,-3 19,-10 5,-6 7,-14 7,-25 0,-10 -2,-17 -6,-22 -4,-5 -10,-8 -18,-8 -7,0 -14,3 -18,8 -5,5 -7,12 -7,20zm171 46l-13 0 0 -13 0 0c-6,10 -15,15 -26,15 -8,0 -15,-2 -19,-7 -5,-4 -8,-10 -8,-17 0,-16 10,-25 28,-27l25 -4c0,-14 -6,-21 -17,-21 -10,0 -19,3 -27,10l0 -14c8,-5 17,-7 28,-7 20,0 29,10 29,31l0 54zm-13 -42l-20 3c-6,0 -11,2 -14,4 -3,2 -5,6 -5,12 0,4 2,7 5,10 2,2 6,4 11,4 7,0 12,-3 16,-7 5,-5 7,-11 7,-18l0 -8zm108 42l-14 0 0 -48c0,-17 -6,-26 -19,-26 -7,0 -12,2 -17,7 -4,5 -6,12 -6,19l0 48 -14 0 0 -83 14 0 0 13 0 0c6,-10 16,-15 27,-15 10,0 17,3 21,8 5,6 8,15 8,26l0 51zm96 0l-13 0 0 -14 -1 0c-6,11 -16,16 -28,16 -11,0 -19,-4 -26,-11 -6,-8 -9,-18 -9,-31 0,-14 4,-25 10,-33 7,-8 17,-12 28,-12 12,0 20,4 25,13l1 0 0 -51 13 0 0 123zm-13 -38l0 -12c0,-7 -3,-12 -7,-17 -5,-5 -10,-7 -17,-7 -8,0 -15,3 -19,9 -5,6 -7,14 -7,25 0,9 2,17 6,22 5,6 11,9 18,9 8,0 14,-3 19,-8 4,-6 7,-13 7,-21z"/>
 </g>
</svg>
