<?xml version="1.0" encoding="UTF-8"?>
<!DOCTYPE svg PUBLIC "-//W3C//DTD SVG 1.1//EN" "http://www.w3.org/Graphics/SVG/1.1/DTD/svg11.dtd">
<!-- Creator: CorelDRAW X7 -->
<svg xmlns="http://www.w3.org/2000/svg" xml:space="preserve" width="8.26772in" height="11.6929in" version="1.1" style="shape-rendering:geometricPrecision; text-rendering:geometricPrecision; image-rendering:optimizeQuality; fill-rule:evenodd; clip-rule:evenodd"
viewBox="0 0 8268 11693"
 xmlns:xlink="http://www.w3.org/1999/xlink">
 <defs>
  <style type="text/css">
   <![CDATA[
    .fil1 {fill:#373435;fill-rule:nonzero}
    .fil0 {fill:black;fill-rule:nonzero}
   ]]>
  </style>
 </defs>
 <g id="Layer_x0020_1">
  <metadata id="CorelCorpID_0Corel-Layer"/>
  <path class="fil0" d="M10168 22133l0 -144c51,37 109,55 177,55 42,0 75,-9 99,-27 23,-18 35,-44 35,-76 0,-34 -14,-60 -43,-78 -30,-18 -70,-28 -121,-28l-70 0 0 -127 65 0c98,0 147,-32 147,-97 0,-62 -38,-92 -113,-92 -51,0 -100,16 -147,48l0 -135c53,-27 114,-40 185,-40 77,0 137,17 180,52 43,35 64,80 64,135 0,98 -50,160 -150,185l0 3c53,6 96,26 126,58 31,32 47,71 47,118 0,70 -26,126 -78,167 -51,41 -122,61 -213,61 -78,0 -141,-12 -190,-38z"/>
  <path class="fil1" d="M10816 22028c-12,6 -26,9 -43,9 -19,0 -33,-5 -44,-15 -11,-11 -16,-25 -16,-43 0,-18 6,-33 17,-45 12,-11 28,-17 48,-17 12,0 23,1 32,5l0 25c-9,-6 -20,-8 -33,-8 -11,0 -20,3 -26,10 -7,7 -11,17 -11,29 0,12 3,21 9,28 7,6 15,9 25,9 7,0 12,0 15,-2l0 -23 -23 0 0 -21 50 0 0 59zm92 7l-70 0 0 -116 68 0 0 21 -41 0 0 26 38 0 0 21 -38 0 0 27 43 0 0 21zm103 -95l-34 0 0 95 -26 0 0 -95 -33 0 0 -21 93 0 0 21zm37 91l0 -26c5,4 10,7 16,9 5,2 11,3 17,3 3,0 6,-1 8,-1 3,-1 5,-2 6,-3 2,-1 3,-2 4,-3 1,-2 1,-3 1,-5 0,-2 0,-4 -2,-6 -1,-2 -3,-4 -5,-5 -2,-2 -5,-3 -8,-4 -3,-2 -6,-3 -10,-5 -9,-4 -16,-8 -20,-14 -5,-5 -7,-12 -7,-20 0,-6 1,-11 4,-15 2,-5 5,-8 10,-11 4,-3 9,-5 14,-6 6,-2 12,-2 18,-2 6,0 11,0 16,1 5,1 9,2 13,3l0 25c-2,-2 -4,-3 -6,-4 -3,-1 -5,-2 -8,-3 -2,0 -4,-1 -7,-1 -2,0 -5,-1 -7,-1 -3,0 -5,1 -8,1 -2,1 -4,2 -6,3 -2,1 -3,2 -4,3 -1,2 -1,3 -1,5 0,2 0,4 1,5 1,2 3,4 5,5 1,1 4,3 7,4 2,1 5,3 9,4 4,2 9,4 12,6 4,2 7,5 10,8 2,3 5,6 6,9 1,4 2,8 2,13 0,6 -1,12 -4,16 -2,4 -5,8 -10,11 -4,3 -9,4 -14,6 -6,1 -12,1 -18,1 -7,0 -13,0 -19,-1 -5,-1 -10,-3 -15,-5zm181 -91l-33 0 0 95 -26 0 0 -95 -34 0 0 -21 93 0 0 21zm107 95l-29 0 -8 -26 -42 0 -8 26 -28 0 42 -116 31 0 42 116zm-43 -46l-13 -39c-1,-3 -1,-6 -2,-10l0 0c0,3 -1,6 -2,10l-13 39 30 0zm155 46l-30 0 -18 -30c-1,-2 -3,-4 -4,-6 -1,-1 -2,-3 -4,-4 -1,-2 -2,-3 -4,-3 -1,-1 -3,-1 -4,-1l-7 0 0 44 -27 0 0 -116 42 0c28,0 43,10 43,31 0,5 -1,8 -2,12 -2,3 -3,6 -6,9 -2,3 -5,5 -8,7 -3,2 -7,4 -11,5l0 0c2,1 4,2 5,3 2,1 4,3 5,4 2,2 3,4 5,5 1,2 2,4 3,6l22 34zm-71 -97l0 33 11 0c6,0 10,-2 14,-5 3,-3 5,-7 5,-12 0,-10 -6,-16 -18,-16l-12 0zm161 2l-33 0 0 95 -27 0 0 -95 -33 0 0 -21 93 0 0 21zm86 95l-70 0 0 -116 67 0 0 21 -41 0 0 26 38 0 0 21 -38 0 0 27 44 0 0 21zm18 0l0 -116 42 0c41,0 62,19 62,57 0,18 -6,32 -17,43 -11,11 -27,16 -45,16l-42 0zm27 -95l0 74 13 0c11,0 20,-3 26,-10 7,-7 10,-16 10,-28 0,-11 -3,-20 -10,-26 -6,-7 -15,-10 -27,-10l-12 0z"/>
 </g>
</svg>
