<?xml version="1.0" encoding="UTF-8"?>
<!DOCTYPE svg PUBLIC "-//W3C//DTD SVG 1.1//EN" "http://www.w3.org/Graphics/SVG/1.1/DTD/svg11.dtd">
<!-- Creator: CorelDRAW X7 -->
<svg xmlns="http://www.w3.org/2000/svg" xml:space="preserve" width="8.26772in" height="11.6929in" version="1.1" style="shape-rendering:geometricPrecision; text-rendering:geometricPrecision; image-rendering:optimizeQuality; fill-rule:evenodd; clip-rule:evenodd"
viewBox="0 0 8268 11693"
 xmlns:xlink="http://www.w3.org/1999/xlink">
 <defs>
  <style type="text/css">
   <![CDATA[
    .fil1 {fill:#B8D12E;fill-rule:nonzero}
    .fil0 {fill:white;fill-rule:nonzero}
   ]]>
  </style>
   <clipPath id="id0">
    <rect x="13563" y="14923" width="1410" height="414"/>
   </clipPath>
 </defs>
 <g id="Layer_x0020_1">
  <metadata id="CorelCorpID_0Corel-Layer"/>
  <path class="fil0" d="M13254 14261c-21,12 -46,18 -76,18 -33,0 -60,-9 -79,-28 -19,-18 -29,-44 -29,-76 0,-33 11,-59 32,-80 21,-21 49,-31 84,-31 22,0 41,3 58,9l0 44c-16,-9 -36,-14 -59,-14 -19,0 -35,7 -47,19 -13,13 -19,30 -19,51 0,21 6,37 17,49 11,12 26,18 44,18 11,0 20,-2 27,-5l0 -41 -42 0 0 -37 89 0 0 104zm169 -47l-97 0c2,22 15,33 41,33 16,0 30,-4 43,-12l0 33c-14,7 -32,11 -54,11 -24,0 -42,-7 -55,-20 -14,-13 -20,-32 -20,-55 0,-25 7,-45 21,-59 14,-14 32,-22 53,-22 21,0 38,7 50,20 12,13 18,30 18,52l0 19zm-43 -28c0,-21 -8,-32 -25,-32 -8,0 -14,3 -19,9 -6,6 -9,14 -10,23l54 0zm160 88c-7,3 -17,5 -31,5 -32,0 -48,-17 -48,-50l0 -68 -24 0 0 -34 24 0 0 -32 45 -13 0 45 34 0 0 34 -34 0 0 60c0,15 6,23 19,23 5,0 10,-1 15,-4l0 34zm98 -3l0 -37c7,5 15,8 22,10 8,3 15,4 21,4 8,0 15,-1 19,-4 5,-2 7,-5 7,-10 0,-3 -1,-5 -3,-7 -2,-2 -5,-4 -8,-5 -3,-1 -7,-3 -11,-4 -4,-1 -8,-2 -11,-4 -6,-2 -11,-4 -16,-7 -4,-3 -8,-5 -11,-9 -3,-3 -5,-7 -7,-12 -2,-4 -2,-9 -2,-15 0,-9 1,-16 5,-22 4,-6 8,-11 14,-14 6,-4 13,-7 21,-9 8,-2 16,-3 24,-3 7,0 14,1 20,2 7,1 14,2 20,4l0 36c-5,-4 -12,-6 -18,-8 -7,-2 -13,-2 -20,-2 -3,0 -6,0 -8,0 -3,1 -5,2 -7,3 -2,1 -4,2 -5,4 -1,1 -2,3 -2,5 0,3 1,5 3,7 2,2 4,4 7,5 3,1 6,3 9,4 3,1 7,2 10,3 6,2 12,5 17,7 5,3 9,6 12,9 4,3 7,7 9,12 1,4 2,10 2,16 0,9 -2,16 -5,23 -4,6 -9,11 -16,15 -6,4 -13,6 -21,8 -9,2 -17,3 -26,3 -16,0 -32,-3 -45,-8zm229 3c-6,3 -17,5 -30,5 -32,0 -49,-17 -49,-50l0 -68 -24 0 0 -34 24 0 0 -32 46 -13 0 45 33 0 0 34 -33 0 0 60c0,15 6,23 18,23 5,0 10,-1 15,-4l0 34zm150 1l-44 0 0 -21 0 0c-10,17 -25,25 -45,25 -14,0 -25,-4 -33,-12 -9,-8 -13,-19 -13,-33 0,-29 17,-45 51,-50l41 -5c0,-16 -9,-24 -27,-24 -18,0 -34,5 -50,15l0 -34c6,-3 15,-6 26,-9 11,-2 21,-4 30,-4 42,0 64,22 64,64l0 88zm-43 -60l0 -10 -27 4c-15,1 -23,8 -23,20 0,5 2,9 6,13 3,3 8,5 14,5 9,0 16,-3 21,-9 6,-6 9,-14 9,-23zm176 -47c-6,-3 -12,-4 -20,-4 -10,0 -17,3 -23,11 -6,7 -8,17 -8,29l0 71 -46 0 0 -148 46 0 0 28 0 0c7,-21 20,-31 39,-31 5,0 9,1 12,2l0 42zm119 106c-7,3 -17,5 -31,5 -32,0 -48,-17 -48,-50l0 -68 -24 0 0 -34 24 0 0 -32 46 -13 0 45 33 0 0 34 -33 0 0 60c0,15 6,23 18,23 5,0 10,-1 15,-4l0 34zm158 -60l-97 0c2,22 15,33 41,33 16,0 30,-4 43,-12l0 33c-14,7 -32,11 -54,11 -24,0 -42,-7 -55,-20 -14,-13 -20,-32 -20,-55 0,-25 7,-45 21,-59 15,-14 32,-22 53,-22 22,0 38,7 50,20 12,13 18,30 18,52l0 19zm-43 -28c0,-21 -8,-32 -25,-32 -8,0 -14,3 -19,9 -6,6 -9,14 -10,23l54 0zm215 89l-46 0 0 -20 0 0c-11,16 -26,24 -46,24 -19,0 -34,-7 -45,-20 -11,-13 -17,-31 -17,-55 0,-24 6,-44 19,-58 12,-15 29,-23 49,-23 19,0 32,7 40,21l0 0 0 -88 46 0 0 219zm-45 -72l0 -11c0,-10 -3,-18 -8,-24 -6,-6 -13,-10 -22,-10 -10,0 -18,4 -24,12 -5,8 -8,19 -8,33 0,13 2,23 8,30 6,7 13,11 23,11 9,0 17,-4 23,-11 5,-8 8,-18 8,-30zm357 72l-47 0 -86 -130c-5,-8 -8,-14 -10,-17l-1 0c1,7 1,18 1,33l0 114 -44 0 0 -207 50 0 83 126c4,6 7,11 10,17l1 0c-1,-5 -1,-14 -1,-28l0 -115 44 0 0 207zm135 4c-30,0 -54,-10 -73,-29 -18,-19 -28,-45 -28,-76 0,-33 10,-59 29,-79 19,-21 44,-31 75,-31 30,0 54,10 72,29 19,20 28,45 28,77 0,33 -10,59 -29,79 -19,20 -43,30 -74,30zm2 -175c-16,0 -29,7 -39,19 -10,12 -14,29 -14,49 0,20 4,37 14,49 10,12 22,18 38,18 16,0 29,-6 38,-18 10,-12 15,-28 15,-48 0,-22 -5,-39 -14,-51 -9,-12 -22,-18 -38,-18zm407 -36l-55 207 -52 0 -34 -133c-2,-7 -3,-15 -4,-23l0 0c-1,9 -2,17 -4,23l-35 133 -54 0 -55 -207 51 0 29 138c2,6 3,14 3,24l1 0c0,-8 2,-16 4,-25l38 -137 50 0 34 139c1,5 2,13 3,22l1 0c0,-7 1,-15 3,-23l29 -138 47 0z"/>
  <g id="_2332068962160">
   <path class="fil0" d="M12231 14664l0 -208 58 0c73,0 109,34 109,102 0,32 -10,57 -30,77 -20,19 -48,29 -82,29l-55 0zm25 -186l0 164 31 0c27,0 48,-7 63,-22 15,-14 23,-35 23,-62 0,-53 -28,-80 -85,-80l-32 0zm242 189c-22,0 -39,-6 -53,-20 -13,-14 -19,-33 -19,-55 0,-25 7,-45 20,-59 14,-14 32,-21 55,-21 23,0 40,7 52,21 13,13 19,32 19,56 0,24 -7,43 -20,57 -14,14 -32,21 -54,21zm2 -135c-16,0 -28,5 -37,16 -8,10 -13,24 -13,43 0,17 5,31 14,41 9,10 21,15 36,15 15,0 27,-5 35,-14 8,-10 12,-25 12,-43 0,-18 -4,-33 -12,-43 -8,-10 -20,-15 -35,-15zm297 -16l-45 148 -25 0 -30 -106c-1,-4 -2,-9 -2,-14l-1 0c0,4 -1,8 -3,14l-33 106 -24 0 -45 -148 25 0 31 111c1,4 1,8 2,14l1 0c0,-5 1,-9 3,-14l34 -111 21 0 31 112c1,3 2,8 2,13l2 0c0,-4 1,-8 2,-13l30 -112 24 0zm150 148l-24 0 0 -85c0,-31 -11,-47 -34,-47 -12,0 -22,5 -29,14 -8,9 -12,20 -12,33l0 85 -24 0 0 -148 24 0 0 24 0 0c12,-18 28,-28 49,-28 16,0 29,5 37,16 9,10 13,26 13,45l0 91zm69 0l-24 0 0 -220 24 0 0 220zm110 3c-22,0 -40,-6 -53,-20 -13,-14 -19,-33 -19,-55 0,-25 6,-45 20,-59 14,-14 32,-21 55,-21 22,0 40,7 52,21 12,13 19,32 19,56 0,24 -7,43 -20,57 -14,14 -32,21 -54,21zm1 -135c-15,0 -27,5 -36,16 -9,10 -13,24 -13,43 0,17 4,31 13,41 9,10 21,15 36,15 16,0 28,-5 36,-14 8,-10 12,-25 12,-43 0,-18 -4,-33 -12,-43 -8,-10 -20,-15 -36,-15zm217 132l-24 0 0 -23 -1 0c-10,18 -25,26 -45,26 -15,0 -27,-3 -35,-11 -8,-8 -12,-18 -12,-31 0,-28 16,-44 49,-49l44 -6c0,-25 -10,-38 -31,-38 -17,0 -34,6 -48,18l0 -24c15,-9 31,-14 50,-14 35,0 53,19 53,56l0 96zm-24 -75l-36 5c-11,1 -19,4 -25,8 -5,4 -8,11 -8,21 0,7 2,13 8,18 5,4 12,6 20,6 12,0 22,-4 29,-12 8,-8 12,-19 12,-31l0 -15zm195 75l-24 0 0 -25 0 0c-11,19 -28,28 -51,28 -19,0 -34,-6 -45,-19 -11,-14 -17,-32 -17,-55 0,-24 7,-44 19,-59 12,-14 29,-22 49,-22 21,0 35,8 45,24l0 0 0 -92 24 0 0 220zm-24 -67l0 -22c0,-12 -4,-22 -12,-30 -7,-9 -18,-13 -30,-13 -14,0 -26,5 -34,16 -8,11 -12,25 -12,44 0,17 4,31 12,41 8,10 18,14 32,14 13,0 24,-4 32,-14 8,-9 12,-22 12,-36zm222 66c-5,3 -13,4 -22,4 -26,0 -39,-14 -39,-43l0 -88 -25 0 0 -20 25 0 0 -36 24 -8 0 44 37 0 0 20 -37 0 0 84c0,9 1,17 5,21 3,4 9,6 17,6 6,0 11,-1 15,-5l0 21zm155 1l-24 0 0 -85c0,-31 -11,-47 -34,-47 -12,0 -22,5 -29,14 -8,9 -12,20 -12,34l0 84 -24 0 0 -220 24 0 0 96 0 0c12,-18 28,-28 49,-28 33,0 50,20 50,61l0 91zm164 -68l-105 0c1,16 5,29 14,38 8,9 20,13 35,13 16,0 32,-5 46,-16l0 22c-13,10 -31,14 -52,14 -21,0 -37,-6 -49,-20 -12,-13 -18,-32 -18,-57 0,-23 6,-41 19,-56 13,-15 30,-22 49,-22 19,0 34,7 45,19 11,13 16,30 16,52l0 13zm-24 -20c-1,-14 -4,-25 -10,-32 -7,-8 -16,-12 -27,-12 -12,0 -21,4 -29,12 -8,8 -13,19 -14,32l80 0zm247 88l-23 0 0 -23 -1 0c-10,18 -26,26 -46,26 -14,0 -26,-3 -34,-11 -9,-8 -13,-18 -13,-31 0,-28 16,-44 49,-49l45 -6c0,-25 -11,-38 -31,-38 -18,0 -34,6 -48,18l0 -24c14,-9 31,-14 50,-14 35,0 52,19 52,56l0 96zm-23 -75l-36 5c-11,1 -20,4 -25,8 -6,4 -9,11 -9,21 0,7 3,13 8,18 5,4 12,6 21,6 12,0 21,-4 29,-12 8,-8 12,-19 12,-31l0 -15zm92 54l0 0 0 89 -24 0 0 -216 24 0 0 26 0 0c12,-20 29,-30 52,-30 19,0 34,7 44,20 11,13 16,31 16,53 0,25 -6,45 -18,60 -12,15 -28,22 -49,22 -19,0 -34,-8 -45,-24zm0 -60l0 20c0,13 4,23 12,32 8,8 18,12 30,12 14,0 26,-5 34,-16 8,-11 12,-26 12,-46 0,-16 -4,-29 -11,-39 -8,-9 -18,-14 -31,-14 -14,0 -25,5 -34,15 -8,9 -12,21 -12,36zm175 60l-1 0 0 89 -24 0 0 -216 24 0 0 26 1 0c11,-20 29,-30 51,-30 19,0 34,7 45,20 10,13 16,31 16,53 0,25 -6,45 -18,60 -12,15 -29,22 -50,22 -19,0 -34,-8 -44,-24zm-1 -60l0 20c0,13 4,23 12,32 8,8 18,12 30,12 15,0 26,-5 34,-16 8,-11 12,-26 12,-46 0,-16 -3,-29 -11,-39 -8,-9 -18,-14 -31,-14 -14,0 -25,5 -33,15 -9,9 -13,21 -13,36zm338 81l-24 0 0 -23 0 0c-10,18 -26,26 -46,26 -15,0 -26,-3 -34,-11 -9,-8 -13,-18 -13,-31 0,-28 16,-44 49,-49l44 -6c0,-25 -10,-38 -30,-38 -18,0 -34,6 -49,18l0 -24c15,-9 32,-14 51,-14 35,0 52,19 52,56l0 96zm-24 -75l-35 5c-11,1 -20,4 -25,8 -6,4 -9,11 -9,21 0,7 3,13 8,18 5,4 12,6 21,6 11,0 21,-4 29,-12 8,-8 11,-19 11,-31l0 -15zm192 75l-24 0 0 -85c0,-31 -11,-47 -34,-47 -12,0 -22,5 -30,14 -7,9 -11,20 -11,33l0 85 -24 0 0 -148 24 0 0 24 0 0c11,-18 28,-28 49,-28 16,0 29,5 37,16 9,10 13,26 13,45l0 91zm171 0l-23 0 0 -25 -1 0c-11,19 -28,28 -51,28 -19,0 -33,-6 -45,-19 -11,-14 -16,-32 -16,-55 0,-24 6,-44 18,-59 13,-14 29,-22 50,-22 20,0 35,8 44,24l1 0 0 -92 23 0 0 220zm-23 -67l0 -22c0,-12 -4,-22 -12,-30 -8,-9 -18,-13 -30,-13 -15,0 -26,5 -35,16 -8,11 -12,25 -12,44 0,17 4,31 12,41 8,10 19,14 32,14 13,0 24,-4 32,-14 8,-9 13,-22 13,-36z"/>
   <path class="fil1" d="M15291 14660l0 -37c7,5 15,8 22,10 8,2 15,3 21,3 9,0 15,-1 20,-3 4,-2 7,-5 7,-10 0,-3 -1,-5 -3,-7 -3,-2 -5,-4 -9,-5 -3,-2 -7,-3 -11,-4 -4,-1 -7,-3 -11,-4 -6,-2 -11,-5 -16,-7 -4,-3 -8,-6 -11,-9 -3,-4 -5,-7 -7,-12 -1,-4 -2,-10 -2,-16 0,-8 2,-15 5,-21 4,-6 9,-11 15,-15 6,-4 13,-6 20,-8 8,-2 16,-3 25,-3 6,0 13,1 20,2 6,1 13,2 20,4l0 35c-6,-3 -12,-6 -19,-7 -7,-2 -13,-3 -19,-3 -4,0 -6,0 -9,1 -3,1 -5,1 -7,2 -2,1 -4,3 -5,4 -1,2 -1,4 -1,6 0,2 0,5 2,7 2,2 4,3 7,5 3,1 6,2 9,3 4,1 7,3 10,4 7,2 12,4 17,7 5,2 9,5 13,9 3,3 6,7 8,11 2,5 3,10 3,17 0,8 -2,16 -6,22 -4,6 -9,11 -15,15 -7,4 -14,7 -22,9 -8,2 -17,3 -26,3 -16,0 -31,-3 -45,-8zm163 -168c-8,0 -14,-2 -19,-7 -5,-4 -7,-10 -7,-17 0,-6 2,-12 7,-16 5,-5 11,-7 19,-7 8,0 14,2 19,7 5,4 7,10 7,16 0,7 -2,13 -7,18 -5,4 -11,6 -19,6zm23 172l-46 0 0 -148 46 0 0 148zm184 -17c0,28 -8,49 -24,64 -16,15 -39,23 -70,23 -19,0 -35,-3 -47,-9l0 -38c15,8 31,13 46,13 16,0 28,-4 36,-12 9,-8 13,-20 13,-34l0 -11 -1 0c-10,16 -26,25 -46,25 -19,0 -34,-7 -45,-20 -11,-14 -17,-32 -17,-54 0,-25 7,-45 19,-60 12,-15 29,-22 49,-22 18,0 31,7 40,21l1 0 0 -17 46 0 0 131zm-46 -54l0 -12c0,-9 -2,-17 -8,-24 -5,-7 -13,-10 -22,-10 -10,0 -18,4 -23,12 -6,8 -9,19 -9,33 0,13 3,23 8,30 6,7 13,11 23,11 9,0 17,-4 23,-11 6,-8 8,-17 8,-29zm227 71l-46 0 0 -82c0,-23 -8,-35 -24,-35 -8,0 -15,3 -20,9 -5,6 -7,14 -7,23l0 85 -46 0 0 -148 46 0 0 23 0 0c11,-18 27,-27 48,-27 33,0 49,20 49,61l0 91zm259 0l-46 0 0 -23 0 0c-12,18 -27,27 -46,27 -34,0 -51,-21 -51,-63l0 -89 45 0 0 85c0,21 9,32 25,32 9,0 15,-3 20,-9 5,-6 7,-14 7,-23l0 -85 46 0 0 148zm85 -17l-1 0 0 85 -45 0 0 -216 45 0 0 22 1 0c11,-17 27,-26 48,-26 19,0 34,7 44,20 11,13 16,31 16,54 0,24 -6,44 -19,59 -12,15 -28,23 -48,23 -18,0 -32,-7 -41,-21zm-1 -61l0 12c0,10 2,18 8,25 5,6 12,10 21,10 10,0 18,-4 24,-13 6,-8 9,-19 9,-34 0,-26 -10,-39 -31,-39 -9,0 -17,4 -23,11 -5,7 -8,16 -8,28z"/>
  </g>
  <g style="clip-path:url(#id0)">
   <image x="13563" y="14923" width="1410" height="414" xlink:href="Get started now_Images\Get started now_ImgID1.png"/>
  </g>
 </g>
</svg>
