<?xml version="1.0" encoding="UTF-8"?>
<!DOCTYPE svg PUBLIC "-//W3C//DTD SVG 1.1//EN" "http://www.w3.org/Graphics/SVG/1.1/DTD/svg11.dtd">
<!-- Creator: CorelDRAW X7 -->
<svg xmlns="http://www.w3.org/2000/svg" xml:space="preserve" width="8.26772in" height="11.6929in" version="1.1" style="shape-rendering:geometricPrecision; text-rendering:geometricPrecision; image-rendering:optimizeQuality; fill-rule:evenodd; clip-rule:evenodd"
viewBox="0 0 8268 11693"
 xmlns:xlink="http://www.w3.org/1999/xlink">
 <defs>
  <style type="text/css">
   <![CDATA[
    .fil1 {fill:#99CC33;fill-rule:nonzero}
    .fil0 {fill:white;fill-rule:nonzero}
   ]]>
  </style>
 </defs>
 <g id="Layer_x0020_1">
  <metadata id="CorelCorpID_0Corel-Layer"/>
  <g id="_2332083860080">
   <path class="fil0" d="M12087 5517l0 -62 10 0 0 9c2,-3 4,-6 7,-8 4,-1 7,-2 11,-2 5,0 9,1 11,2 3,2 5,5 7,8 5,-7 11,-10 19,-10 6,0 11,1 14,5 3,3 5,8 5,15l0 43 -11 0 0 -39c0,-4 0,-7 -1,-9 0,-2 -1,-4 -3,-5 -2,-1 -4,-1 -7,-1 -4,0 -8,1 -10,4 -3,3 -5,8 -5,14l0 36 -10 0 0 -40c0,-5 -1,-9 -3,-11 -1,-2 -4,-3 -8,-3 -3,0 -6,0 -8,2 -3,2 -5,4 -6,7 -1,3 -1,7 -1,13l0 32 -11 0zm178 -20l11 1c-2,6 -5,11 -10,15 -4,3 -10,5 -17,5 -9,0 -16,-3 -22,-8 -5,-6 -8,-14 -8,-24 0,-10 3,-18 8,-24 6,-6 13,-8 21,-8 8,0 15,2 20,8 5,6 8,14 8,24 0,0 0,1 0,2l-46 0c0,7 2,12 6,16 3,4 8,5 13,5 3,0 7,-1 9,-3 3,-2 5,-5 7,-9zm-34 -17l34 0c0,-5 -2,-9 -4,-12 -3,-4 -8,-6 -13,-6 -5,0 -9,2 -12,5 -3,3 -5,8 -5,13zm137 17l10 1c-1,6 -4,11 -9,15 -5,3 -11,5 -18,5 -9,0 -16,-3 -21,-8 -5,-6 -8,-14 -8,-24 0,-10 3,-18 8,-24 5,-6 12,-8 21,-8 8,0 15,2 20,8 5,6 8,14 8,24 0,0 0,1 0,2l-46 0c0,7 2,12 5,16 4,4 8,5 13,5 4,0 7,-1 10,-3 3,-2 5,-5 7,-9zm-35 -17l35 0c-1,-5 -2,-9 -4,-12 -4,-4 -8,-6 -13,-6 -5,0 -9,2 -12,5 -4,3 -5,8 -6,13zm118 27l1 10c-3,0 -5,0 -8,0 -3,0 -6,0 -8,-1 -3,-2 -4,-3 -5,-5 -1,-2 -1,-6 -1,-12l0 -36 -8 0 0 -8 8 0 0 -15 10 -7 0 22 11 0 0 8 -11 0 0 36c0,3 1,5 1,6 0,1 1,1 2,2 1,0 2,1 3,1 1,0 3,0 5,-1zm47 -64l0 -11 10 0 0 11 -10 0zm0 74l0 -62 10 0 0 62 -10 0zm63 0l0 -62 9 0 0 9c5,-7 11,-10 20,-10 3,0 7,0 10,2 3,1 5,3 7,5 1,2 2,5 3,8 0,2 1,5 1,10l0 38 -11 0 0 -38c0,-4 0,-7 -1,-9 -1,-2 -2,-4 -4,-5 -2,-2 -5,-2 -8,-2 -4,0 -8,1 -11,4 -3,3 -5,8 -5,16l0 34 -10 0zm100 5l10 1c1,3 2,6 4,7 3,2 6,3 11,3 4,0 8,-1 11,-3 2,-2 4,-5 5,-8 1,-2 1,-7 1,-13 -5,5 -10,8 -17,8 -9,0 -15,-3 -20,-10 -4,-6 -7,-13 -7,-22 0,-5 1,-11 3,-16 3,-5 6,-9 10,-11 4,-3 8,-4 14,-4 7,0 13,3 18,9l0 -8 10 0 0 53c0,10 -1,17 -3,21 -2,4 -5,7 -10,9 -4,2 -9,4 -15,4 -8,0 -14,-2 -18,-5 -5,-4 -7,-9 -7,-15zm9 -37c0,8 2,14 5,17 3,4 7,6 12,6 5,0 9,-2 12,-6 3,-3 5,-9 5,-17 0,-7 -2,-13 -5,-17 -4,-4 -8,-6 -12,-6 -5,0 -9,2 -12,6 -3,4 -5,9 -5,17zm211 9l11 1c-2,8 -4,13 -9,17 -5,4 -10,6 -17,6 -8,0 -15,-3 -20,-8 -5,-6 -8,-14 -8,-24 0,-7 1,-12 3,-17 2,-5 6,-9 10,-12 5,-2 10,-3 15,-3 7,0 12,1 16,5 5,3 7,8 9,14l-10 2c-1,-4 -3,-8 -6,-10 -2,-2 -5,-3 -9,-3 -5,0 -9,2 -12,6 -4,4 -5,10 -5,18 0,8 1,14 4,18 4,4 8,5 13,5 4,0 7,-1 10,-3 3,-3 5,-7 5,-12zm52 -8c0,-12 3,-20 10,-26 5,-4 11,-6 19,-6 8,0 15,2 21,8 5,5 8,13 8,23 0,8 -1,14 -4,19 -2,4 -6,8 -10,10 -5,3 -10,4 -15,4 -9,0 -16,-3 -21,-8 -5,-6 -8,-14 -8,-24zm11 0c0,8 2,14 5,18 3,3 8,5 13,5 5,0 10,-2 13,-6 3,-3 5,-9 5,-18 0,-7 -2,-13 -5,-17 -3,-4 -8,-6 -13,-6 -5,0 -10,2 -13,6 -3,4 -5,10 -5,18zm96 31l0 -62 9 0 0 9c2,-4 5,-7 7,-8 2,-2 4,-2 6,-2 4,0 7,1 11,3l-4 10c-2,-2 -5,-3 -7,-3 -3,0 -5,1 -6,3 -2,1 -3,3 -4,5 -1,4 -2,8 -2,12l0 33 -10 0zm76 23l0 -85 9 0 0 8c3,-3 5,-5 8,-7 3,-2 6,-2 10,-2 5,0 10,1 14,4 4,2 7,6 9,11 2,5 3,10 3,16 0,7 -1,12 -3,17 -2,5 -6,9 -10,12 -4,3 -9,4 -14,4 -3,0 -6,-1 -9,-2 -3,-2 -5,-4 -7,-6l0 30 -10 0zm9 -54c0,8 2,14 5,18 3,3 7,5 12,5 4,0 8,-2 12,-5 3,-4 5,-10 5,-19 0,-8 -2,-13 -5,-17 -3,-4 -7,-6 -12,-6 -4,0 -8,2 -12,6 -3,4 -5,10 -5,18zm89 12l11 -1c0,4 2,7 4,9 3,2 7,3 12,3 4,0 8,-1 10,-3 3,-1 4,-4 4,-6 0,-3 -1,-5 -3,-6 -2,-1 -5,-2 -11,-4 -8,-1 -13,-3 -16,-5 -3,-1 -5,-3 -7,-5 -1,-3 -2,-6 -2,-9 0,-2 1,-5 2,-7 1,-3 3,-5 5,-6 2,-1 4,-2 7,-3 3,-1 6,-1 9,-1 5,0 9,0 12,2 4,1 7,3 9,5 1,3 2,6 3,10l-10 1c-1,-3 -2,-5 -4,-7 -2,-2 -5,-3 -10,-3 -4,0 -8,1 -10,3 -2,1 -3,3 -3,5 0,1 1,3 1,4 1,1 3,2 4,3 1,0 5,1 10,2 7,2 12,4 15,5 3,1 5,3 7,6 2,2 3,5 3,9 0,3 -1,6 -4,9 -2,3 -4,6 -8,7 -4,2 -9,3 -13,3 -8,0 -14,-2 -19,-5 -4,-3 -7,-8 -8,-15zm176 19l0 -62 9 0 0 9c2,-3 4,-6 8,-8 3,-1 7,-2 11,-2 4,0 8,1 11,2 3,2 5,5 6,8 5,-7 11,-10 19,-10 6,0 11,1 14,5 4,3 5,8 5,15l0 43 -10 0 0 -39c0,-4 -1,-7 -1,-9 -1,-2 -2,-4 -4,-5 -2,-1 -4,-1 -6,-1 -5,0 -8,1 -11,4 -3,3 -4,8 -4,14l0 36 -11 0 0 -40c0,-5 -1,-9 -2,-11 -2,-2 -5,-3 -9,-3 -3,0 -5,0 -8,2 -2,2 -4,4 -5,7 -1,3 -2,7 -2,13l0 32 -10 0zm177 -20l11 1c-2,6 -5,11 -9,15 -5,3 -11,5 -18,5 -9,0 -16,-3 -21,-8 -6,-6 -8,-14 -8,-24 0,-10 2,-18 8,-24 5,-6 12,-8 20,-8 9,0 15,2 21,8 5,6 7,14 7,24 0,0 0,1 0,2l-46 0c1,7 3,12 6,16 4,4 8,5 13,5 4,0 7,-1 10,-3 2,-2 5,-5 6,-9zm-34 -17l34 0c0,-5 -1,-9 -4,-12 -3,-4 -7,-6 -13,-6 -4,0 -8,2 -12,5 -3,3 -5,8 -5,13zm95 37l0 -62 9 0 0 9c2,-3 5,-6 8,-8 3,-1 7,-2 11,-2 4,0 8,1 11,2 3,2 5,5 6,8 5,-7 11,-10 19,-10 6,0 11,1 15,5 3,3 4,8 4,15l0 43 -10 0 0 -39c0,-4 0,-7 -1,-9 -1,-2 -2,-4 -4,-5 -1,-1 -4,-1 -6,-1 -4,0 -8,1 -11,4 -3,3 -4,8 -4,14l0 36 -11 0 0 -40c0,-5 0,-9 -2,-11 -2,-2 -5,-3 -9,-3 -2,0 -5,0 -8,2 -2,2 -4,4 -5,7 -1,3 -2,7 -2,13l0 32 -10 0zm145 0l-10 0 0 -85 11 0 0 30c4,-6 10,-8 17,-8 3,0 7,0 10,2 4,1 7,4 9,6 2,3 4,6 5,10 1,4 2,8 2,13 0,10 -3,19 -8,24 -5,6 -12,9 -19,9 -7,0 -13,-3 -17,-9l0 8zm0 -32c0,8 1,13 3,16 3,6 8,8 13,8 5,0 9,-2 12,-6 3,-4 5,-9 5,-17 0,-8 -2,-14 -5,-18 -3,-4 -7,-6 -11,-6 -5,0 -9,2 -12,6 -3,4 -5,10 -5,17zm135 12l11 1c-2,6 -5,11 -10,15 -4,3 -10,5 -17,5 -9,0 -16,-3 -22,-8 -5,-6 -7,-14 -7,-24 0,-10 2,-18 8,-24 5,-6 12,-8 20,-8 9,0 15,2 20,8 6,6 8,14 8,24 0,0 0,1 0,2l-46 0c1,7 3,12 6,16 3,4 8,5 13,5 4,0 7,-1 10,-3 2,-2 5,-5 6,-9zm-34 -17l34 0c0,-5 -2,-9 -4,-12 -3,-4 -7,-6 -13,-6 -4,0 -8,2 -12,5 -3,3 -5,8 -5,13zm95 37l0 -62 9 0 0 9c2,-4 5,-7 7,-8 2,-2 4,-2 6,-2 4,0 7,1 11,3l-4 10c-2,-2 -5,-3 -7,-3 -3,0 -5,1 -6,3 -2,1 -3,3 -4,5 -1,4 -2,8 -2,12l0 33 -10 0zm72 -19l10 -1c1,4 2,7 5,9 2,2 6,3 11,3 5,0 8,-1 11,-3 2,-1 3,-4 3,-6 0,-3 -1,-5 -3,-6 -1,-1 -5,-2 -11,-4 -7,-1 -13,-3 -16,-5 -3,-1 -5,-3 -6,-5 -2,-3 -3,-6 -3,-9 0,-2 1,-5 2,-7 2,-3 3,-5 5,-6 2,-1 4,-2 7,-3 3,-1 6,-1 9,-1 5,0 9,0 13,2 3,1 6,3 8,5 2,3 3,6 3,10l-10 1c0,-3 -2,-5 -4,-7 -2,-2 -5,-3 -9,-3 -5,0 -8,1 -10,3 -2,1 -3,3 -3,5 0,1 0,3 1,4 1,1 2,2 4,3 1,0 4,1 9,2 7,2 13,4 15,5 3,1 6,3 7,6 2,2 3,5 3,9 0,3 -1,6 -3,9 -2,3 -5,6 -9,7 -4,2 -8,3 -13,3 -8,0 -14,-2 -18,-5 -5,-3 -7,-8 -8,-15zm175 19l0 -62 9 0 0 9c5,-7 11,-10 20,-10 4,0 7,0 10,2 3,1 6,3 7,5 2,2 3,5 3,8 1,2 1,5 1,10l0 38 -11 0 0 -38c0,-4 0,-7 -1,-9 -1,-2 -2,-4 -4,-5 -2,-2 -5,-2 -7,-2 -5,0 -9,1 -12,4 -3,3 -5,8 -5,16l0 34 -10 0zm145 -20l10 1c-1,6 -4,11 -9,15 -5,3 -10,5 -18,5 -9,0 -16,-3 -21,-8 -5,-6 -8,-14 -8,-24 0,-10 3,-18 8,-24 5,-6 12,-8 21,-8 8,0 15,2 20,8 5,6 8,14 8,24 0,0 0,1 0,2l-46 0c0,7 2,12 6,16 3,4 7,5 12,5 4,0 7,-1 10,-3 3,-2 5,-5 7,-9zm-35 -17l35 0c-1,-5 -2,-9 -4,-12 -4,-4 -8,-6 -13,-6 -5,0 -9,2 -12,5 -3,3 -5,8 -6,13zm137 17l11 1c-2,6 -5,11 -9,15 -5,3 -11,5 -18,5 -9,0 -16,-3 -21,-8 -6,-6 -8,-14 -8,-24 0,-10 2,-18 8,-24 5,-6 12,-8 20,-8 9,0 15,2 21,8 5,6 7,14 7,24 0,0 0,1 0,2l-46 0c1,7 3,12 6,16 4,4 8,5 13,5 4,0 7,-1 10,-3 3,-2 5,-5 6,-9zm-34 -17l34 0c0,-5 -1,-9 -4,-12 -3,-4 -7,-6 -12,-6 -5,0 -9,2 -13,5 -3,3 -5,8 -5,13zm135 37l0 -8c-4,6 -10,9 -18,9 -4,0 -9,-1 -13,-4 -4,-3 -7,-7 -10,-11 -2,-5 -3,-11 -3,-17 0,-6 1,-12 3,-17 2,-5 5,-9 9,-11 4,-3 9,-4 14,-4 4,0 7,0 10,2 3,2 5,4 7,6l0 -30 10 0 0 85 -9 0zm-33 -31c0,8 1,14 5,18 3,3 7,5 11,5 5,0 9,-1 12,-5 3,-4 5,-10 5,-17 0,-9 -2,-15 -5,-19 -3,-4 -7,-6 -12,-6 -5,0 -9,2 -12,6 -3,4 -4,10 -4,18zm91 12l11 -1c0,4 2,7 5,9 2,2 6,3 11,3 4,0 8,-1 10,-3 3,-1 4,-4 4,-6 0,-3 -1,-5 -3,-6 -2,-1 -5,-2 -11,-4 -8,-1 -13,-3 -16,-5 -3,-1 -5,-3 -7,-5 -1,-3 -2,-6 -2,-9 0,-2 1,-5 2,-7 1,-3 3,-5 5,-6 2,-1 4,-2 7,-3 3,-1 6,-1 9,-1 5,0 9,0 13,2 3,1 6,3 8,5 1,3 3,6 3,10l-10 1c0,-3 -2,-5 -4,-7 -2,-2 -5,-3 -9,-3 -5,0 -9,1 -11,3 -2,1 -3,3 -3,5 0,1 1,3 1,4 1,1 3,2 5,3 1,0 4,1 9,2 7,2 12,4 15,5 3,1 5,3 7,6 2,2 3,5 3,9 0,3 -1,6 -3,9 -3,3 -5,6 -9,7 -4,2 -8,3 -13,3 -8,0 -14,-2 -19,-5 -4,-3 -6,-8 -8,-15z"/>
   <g>
    <path class="fil1" d="M11975 5528l-3 0 -2 0 -2 -1 -2 0 -2 0 -2 -1 -2 -1 -1 0 -2 -1 -2 -1 -2 -1 -2 -1 -1 -1 -2 -2 -1 -1 -2 -1 -1 -2 -1 -1 -2 -2 -1 -1 -1 -2 -1 -2 -1 -2 0 -1 -1 -2 -1 -2 0 -2 -1 -2 0 -2 -1 -2 0 -2 0 -2 0 0 0 -3 0 -2 1 -2 0 -2 1 -2 0 -2 1 -2 1 -2 0 -1 1 -2 1 -2 1 -2 1 -1 2 -2 1 -1 1 -2 2 -1 1 -1 2 -2 1 -1 2 -1 2 -1 2 -1 2 0 1 -1 2 -1 2 0 2 -1 2 0 2 -1 2 0 3 0 0 0 2 0 2 0 2 1 2 0 2 1 2 0 2 1 2 1 1 0 2 1 2 1 2 1 1 1 2 2 1 1 2 1 1 2 1 1 2 2 1 1 1 2 1 2 1 2 1 1 0 2 1 2 1 2 0 2 0 2 1 2 0 2 0 3 0 0 0 2 0 2 -1 2 0 2 0 2 -1 2 -1 2 0 2 -1 1 -1 2 -1 2 -1 2 -1 1 -2 2 -1 1 -1 2 -2 1 -1 1 -2 2 -1 1 -2 1 -2 1 -2 1 -1 1 -2 0 -2 1 -2 1 -2 0 -2 0 -2 1 -2 0 -2 0 0 0zm-732 -48l732 0 0 14 -732 0 0 -14z"/>
   </g>
   <g>
    <path class="fil1" d="M14787 5445l2 0 2 0 2 1 2 0 2 1 2 0 2 1 2 1 1 0 2 1 2 1 2 1 1 1 2 2 1 1 2 1 1 2 1 1 2 2 1 1 1 2 1 2 1 2 1 1 0 2 1 2 1 2 0 2 0 2 1 2 0 2 0 3 0 0 0 2 0 2 -1 2 0 2 0 2 -1 2 -1 2 0 2 -1 1 -1 2 -1 2 -1 2 -1 1 -2 2 -1 1 -1 2 -2 1 -1 1 -2 2 -1 1 -2 1 -2 1 -2 1 -1 1 -2 0 -2 1 -2 1 -2 0 -2 0 -2 1 -2 0 -2 0 0 0 -3 0 -2 0 -2 -1 -2 0 -2 0 -2 -1 -2 -1 -2 0 -1 -1 -2 -1 -2 -1 -2 -1 -1 -1 -2 -2 -1 -1 -2 -1 -1 -2 -1 -1 -2 -2 -1 -1 -1 -2 -1 -2 -1 -2 -1 -1 0 -2 -1 -2 0 -2 -1 -2 0 -2 -1 -2 0 -2 0 -2 0 0 0 -3 0 -2 1 -2 0 -2 1 -2 0 -2 1 -2 0 -2 1 -1 1 -2 1 -2 1 -2 1 -1 2 -2 1 -1 1 -2 2 -1 1 -1 2 -2 1 -1 2 -1 2 -1 2 -1 1 0 2 -1 2 -1 2 0 2 -1 2 0 2 -1 2 0 3 0 0 0zm731 49l-731 0 0 -14 731 0 0 14z"/>
   </g>
  </g>
 </g>
</svg>
